<svg xmlns="http://www.w3.org/2000/svg" width="270" height="172">
    <g fill="none" fill-rule="evenodd">
        <path fill="#FFF" d="M199.123 142.954a14.234 14.234 0 0 0-3.924-.645c-4.113 0-5.724 2.386-5.724 4.447.068 5.48 7.011 4.001 7.078 7.547 0 1.096-.774 2.386-3.217 2.386a9.682 9.682 0 0 1-3.343-.582l-.387 2.129c.963.45 3.364.645 4.31.645 4.244 0 6.174-2.58 6.111-5.223-.067-5.48-7.078-4.515-7.15-7.416 0-1.096.842-1.804 2.7-1.804a12.22 12.22 0 0 1 3.087.45l.45-1.934M180.79 145.66h-.576c-2.06 0-3.41 1.164-4.504 3.483v9.544h-3.343v-15.733c1.124-.1 2.24-.272 3.343-.514v3.739c.968-1.809 2.318-3.933 4.761-3.933.193 0 .513.063.774.063l-.454 3.351M212.699 158.687v-10.64c0-2.387-.842-3.095-2.318-3.095s-2.893 1.096-4.18 2.837v10.898h-3.344v-21.344a16.97 16.97 0 0 0 3.344-.514v8.317c1.606-1.998 3.41-2.837 5.274-2.837 1.93 0 3.41.902 4.054 2.45.383.842.45 1.614.45 3.35v10.578h-3.28M164.389 158.687v-21.344a14.647 14.647 0 0 0 3.667-.708v22.052h-3.667M184.588 139.86a1.998 1.998 0 0 1-1.849-1.235 2.006 2.006 0 0 1 .433-2.184 1.994 1.994 0 0 1 2.179-.433 2.003 2.003 0 0 1-.763 3.852M182.914 158.687v-15.733l.324-.063a15.908 15.908 0 0 0 3.024-.451v16.247h-3.364M224.92 158.687v-21.344a19.43 19.43 0 0 0 3.667-.708v19.603h6.624v2.449h-10.29M254.317 137.28a7.67 7.67 0 0 0-1.61-.194c-2.057 0-2.768 1.159-2.768 4.578v1.033h3.66l-.32 1.998h-3.365v13.912h-3.407v-13.912h-2.636l.32-1.998h2.316v-1.29c0-4.321 1.683-6.324 5.405-6.324.906-.007 1.81.079 2.7.257l-.32 1.935M239.329 139.86a1.998 1.998 0 0 1-1.85-1.235 2.006 2.006 0 0 1 .433-2.184 1.994 1.994 0 0 1 2.179-.433 2.003 2.003 0 0 1-.762 3.852M237.655 158.687v-15.733l.324-.063a20.776 20.776 0 0 0 3.02-.451v16.247h-3.344" />
        <path fill="#FFF" fill-rule="nonzero" d="M258.43 150.947v.396c.13 3.676 1.544 5.287 4.505 5.287 1.286 0 2.317-.258 4.117-.966l.643 1.805c-2.187 1.096-3.667 1.483-5.724 1.483-4.76 0-7.271-2.95-7.271-8.574 0-5.093 2.574-8.124 6.885-8.124 4.31 0 6.56 2.951 6.56 8.638h-9.715v.055zm3.155-6.834c-1.93 0-3.087 1.741-3.218 4.836h6.111c-.063-3.095-1.093-4.836-2.893-4.836zM132.805 159.075c-1.863 0-3.344-.776-4.757-2.386v1.935h-2.3v-24.375h2.317v10.834c2.056-2.003 3.663-2.837 5.66-2.837 3.664 0 6.175 3.157 6.175 7.672-.017 5.417-2.91 9.157-7.095 9.157zm.324-14.51c-1.8 0-3.73 1.226-5.148 3.161v6.058c1.417 2.002 3.087 3.099 4.824 3.099 2.704 0 4.567-2.648 4.567-6.45 0-3.42-1.737-5.869-4.243-5.869z" />
        <path fill="#FFF" d="M148.63 162.363c-.193.514-.32.771-.32.843a9.279 9.279 0 0 1-1.286 2.129c-.71.97-1.804 1.42-3.28 1.42a4.81 4.81 0 0 1-2.124-.387l.513-1.686c.486.109.982.174 1.48.193 1.224 0 1.867-.514 2.574-2.255l.45-1.096 1.287-3.094-6.367-15.67h2.636l5.018 13.026 5.274-13.026h2.443l-8.298 19.603zM184.138 51.781a6.39 6.39 0 0 1-.45.515 3.685 3.685 0 0 0-1.093 2.837v.13a7.75 7.75 0 0 0 .77 2.644 3.668 3.668 0 0 0 1.93 1.998 4.999 4.999 0 0 0 2.25.451 7.385 7.385 0 0 0 1.998-.257 5.731 5.731 0 0 0 3.6-2.323c.295-.473.554-.967.773-1.48.24-.483.455-.978.644-1.484.45-1.353.19-2.774-.774-4.19-1.287-1.809-2.767-2.066-3.86-1.872-.978.088-1.946.26-2.894.515-1.03.13-2.187.712-2.894 2.516z" />
        <path fill="#FFF" fill-rule="nonzero" d="M269.58 90.018v-.194c.128-.844-.386-1.36-1.544-1.548-.063 0-.193-.063-.257-.063-.643-.13-1.35.127-2.443 1.096l-.13.127-.383.708c-.26.475-.637.875-1.094 1.164-.13.063-.26.193-.45.32l-.13.13a1.233 1.233 0 0 0-.387.966c0 .13-.063.194-.063.257h-.13a1.906 1.906 0 0 0-1.413 1.096l-.068.13v.132c-.189.902-.513 1.159-.84 1.285a6.878 6.878 0 0 0-2.188 1.687 10.223 10.223 0 0 1-2.187 1.935c-.84.581-1.682 1.096-2.523 1.61a19.52 19.52 0 0 1-2.317 1.164 6.791 6.791 0 0 1-2.313.577 4.364 4.364 0 0 1-.968-.063 3.97 3.97 0 0 0-1.476.063 2.82 2.82 0 0 1-1.93-.32 1.606 1.606 0 0 1-.841-1.227 21.873 21.873 0 0 0-.58-3.996 4.567 4.567 0 0 1 .517-3.162 1.483 1.483 0 0 0 .063-1.741 1.103 1.103 0 0 1 0-.641c.12-.44.271-.87.45-1.29l.063-.13c.193-.709.387-1.485.517-2.193.194-.776.32-1.547.45-2.323 0-.19.063-.32.45-.383 2.991-.16 5.91-.975 8.554-2.386a15.055 15.055 0 0 0 3.537-2.45 29.992 29.992 0 0 0 2.83-2.837 5.06 5.06 0 0 0 1.03-1.551c0-.064.064-.257.45-.384.388-.126.707-.388.9-.97.053-.253.074-.512.064-.771l-.063-.257c0-.068-.126-.388.387-.907a2.198 2.198 0 0 0 .841-1.804v-.126a2.032 2.032 0 0 1 .063-1.096c.138-.488.246-.984.324-1.484.333-1.466.198-3-.387-4.385a12.565 12.565 0 0 0-2.254-3.419l-.063-.063c-1.544-1.484-3.6-2.192-5.98-2.129a3.038 3.038 0 0 0-1.994.13 6.15 6.15 0 0 1-1.354.385 14.99 14.99 0 0 0-8.412 3.87 33.51 33.51 0 0 0-2.944 3.094 27.363 27.363 0 0 0-2.443 3.419c-.707 1.16-1.417 2.323-2.057 3.482a23.664 23.664 0 0 0-1.682 3.676 70.002 70.002 0 0 0-1.224 3.482 32.46 32.46 0 0 0-.963 3.609 44.637 44.637 0 0 0-.967 4.709c-.207.13-.4.28-.576.45a15.23 15.23 0 0 1-1.93 1.417 27.343 27.343 0 0 1-5.342 2.644 17.034 17.034 0 0 1-5.787.97h-.143a1.41 1.41 0 0 1-.9-.132 3.441 3.441 0 0 0-1.993-.32c-1.224 0-2.124-.582-2.893-1.872a7.767 7.767 0 0 0-1.544-1.686 3.8 3.8 0 0 0 .45-1.353 13.573 13.573 0 0 1 4.05-6.252 18.046 18.046 0 0 0 2.704-3.482 6.867 6.867 0 0 1 2.574-2.53l.19-.126c.145-.16.274-.334.386-.519l.13-.194.064-.193a6.182 6.182 0 0 1 2.38-3.027 7.87 7.87 0 0 0 1.737-2.323l.063-.063c.257-.776.517-1.033.644-1.097l.063-.067a6.477 6.477 0 0 0 1.93-2.061c.387-.645.841-1.354 1.287-2.062l.067-.067c.151-.345.345-.67.576-.966a4.352 4.352 0 0 0 2.187-2.58c.24-.755.66-1.441 1.224-1.998.53-.32.92-.826 1.094-1.42 0-.064.063-.195.387-.321l.126-.063c.774-.388.774-1.421.774-1.809v-.194l.126-.126a6.67 6.67 0 0 0 1.93-2.323c.337-.728.724-1.433 1.157-2.108 1.16-1.935 2.317-3.794 3.364-5.611a53.291 53.291 0 0 0 2.944-5.738 7.025 7.025 0 0 0 .698-1.728c.07-.355.224-.688.45-.97a3.897 3.897 0 0 0 1.014-1.758c.193-.577.324-1.159.517-1.686.11-.485.26-.96.45-1.42.132-.336.355-.628.643-.844l.387-.32v-1.147c.003-.305.045-.608.127-.902.063-.32.193-.708.256-1.16.442-1.178.703-2.418.774-3.675.06-1.25-.005-2.503-.194-3.74v-.063a5.293 5.293 0 0 0-4.373-4.384 6.52 6.52 0 0 0-2.944.063c-.885.255-1.733.624-2.524 1.096a22.282 22.282 0 0 0-2.767 1.741 17.608 17.608 0 0 0-2.313 1.999 46.151 46.151 0 0 0-3.6 3.482 38.824 38.824 0 0 0-3.079 3.992 60.806 60.806 0 0 1-2.102 2.53 11.357 11.357 0 0 0-1.863 3.03c-.092.143-.2.273-.324.388a14.783 14.783 0 0 0-2.637 3.609 66.917 66.917 0 0 1-2.057 3.613c-.904 1.547-1.737 3.027-2.574 4.447-.836 1.421-1.61 2.9-2.38 4.385a18.02 18.02 0 0 0-1.606 3.419 6.868 6.868 0 0 1-1.868 2.77l-.324.324.068.45c.1.481-.073.978-.45 1.29a3.718 3.718 0 0 0-1.287 2.901c.006.23-.062.457-.194.645l-.706.966a2.43 2.43 0 0 0-1.094 1.808 10.882 10.882 0 0 1-.71 2.192c-.336.73-.722 1.434-1.157 2.108l-.063.068c-.387.708-.707 1.48-1.093 2.255a13.67 13.67 0 0 0-.9 2.386 11.99 11.99 0 0 1-1.094 2.9 12.02 12.02 0 0 0-1.287 3.289c-.167.66-.382 1.307-.643 1.935a34.42 34.42 0 0 0-.58 1.484l-1.35 1.547c-.9 1.033-1.738 1.998-2.524 3.031a25.594 25.594 0 0 1-2.523 2.837 9.928 9.928 0 0 0-1.93 2.108 10.972 10.972 0 0 1-1.683 1.808c-.644.515-1.283 1.097-1.926 1.687a6.804 6.804 0 0 1-1.804 1.227 1.9 1.9 0 0 1-1.027.063 1.329 1.329 0 0 1-.387-.645 3.046 3.046 0 0 1-.193-.843c.063-1.687.13-3.293.13-4.903v-4.684c.02-.31.084-.615.19-.906v-.063a8.757 8.757 0 0 1 .643-1.805 3.549 3.549 0 0 0 .194-2.58c.534-.433.88-1.057.967-1.74.053-.373.14-.74.256-1.097l.063-.194c.077-.374.186-.74.324-1.096.194-.388.32-.771.513-1.222a8.897 8.897 0 0 0 1.544-3.483c.256-1.163.58-2.26.9-3.288.387-1.29-.063-2.53-1.35-3.372a9.871 9.871 0 0 0-1.8-.966 11.302 11.302 0 0 0-2.06-.645c-1.544-.324-3.088.13-4.438 1.417a9.325 9.325 0 0 0-3.087 4.451 10.697 10.697 0 0 1-2.254 3.866l-.256.325v.194l-.127.126v.325c-.012.24-.056.479-.13.708-.063.063-.126.194-.193.257a6.053 6.053 0 0 0-1.544 2.643 5.485 5.485 0 0 1-1.156 2.193 8.162 8.162 0 0 0-1.544 2.71c-.392 1.135-.96 2.2-1.682 3.158a34.84 34.84 0 0 0-2.187 3.419 22.398 22.398 0 0 1-5.467 6.964 26.386 26.386 0 0 1-2.444 2.192 5.175 5.175 0 0 1-2.637 1.096h-.13a2.564 2.564 0 0 1-1.544-.13 2.139 2.139 0 0 1-1.093-1.029c-.257-.712-.58-1.42-.9-2.129a2.923 2.923 0 0 1-.257-1.615 13.907 13.907 0 0 0-.13-4.316 4.9 4.9 0 0 1 .45-3.289c.203-.375.25-.816.13-1.226a2.852 2.852 0 0 1-.063-.32v-.907c.015-.285.058-.567.127-.843.193-.907.386-1.741.513-2.58.193-.843.387-1.741.517-2.644.193-1.096.387-2.128.576-3.161a4.945 4.945 0 0 1 1.16-2.319c.903-.89 1.702-1.88 2.381-2.95.576-.966 1.287-1.936 1.994-2.901.9-1.29 1.8-2.53 2.637-3.794.84-1.223 1.606-2.53 2.38-3.795.482-.663.891-1.376 1.22-2.128a6.277 6.277 0 0 1 1.223-1.687 17.704 17.704 0 0 0 1.683-2.323c.382-.708.84-1.42 1.22-2.107l.067-.064a8.668 8.668 0 0 1 1.543-2.255 6.018 6.018 0 0 0 1.35-2.951c.063 0 .063-.063.126-.063.454-.13 1.03-.582 1.354-1.547a9.21 9.21 0 0 1 1.477-2.838 13.16 13.16 0 0 0 1.867-3.161c.417-.84.913-1.64 1.48-2.386.623-.903 1.1-1.9 1.413-2.951v-.131a2.2 2.2 0 0 1 .387-.965l.963-1.227c.338-.448.64-.922.904-1.417.265-.54.375-1.142.32-1.74a6.607 6.607 0 0 0 1.956-2.889c.387-1.032.706-2.065 1.093-3.161.274-.909.49-1.834.644-2.77.126-.843.256-1.741.45-2.774.32-2.323-.45-4.19-2.124-5.48a6.43 6.43 0 0 0-2.944-1.227 4.407 4.407 0 0 0-3.28.582c-1 .687-2.056 1.29-3.155 1.804a11.067 11.067 0 0 0-3.28 2.45 8.385 8.385 0 0 0-1.22 1.483 1.79 1.79 0 0 1-.967.582l-.257.063-.706.708-.067.194c-.13.304-.303.588-.513.844-.352.384-.674.794-.964 1.226a23.865 23.865 0 0 1-1.736 1.805 10.265 10.265 0 0 0-1.805 2.255 22.338 22.338 0 0 1-2.38 3.162 12.418 12.418 0 0 0-2.376 3.672v.067a12.406 12.406 0 0 0-2.254 3.545v.06a2.199 2.199 0 0 1-.257.581c-.13.194-.256.451-.45.708a31.19 31.19 0 0 0-3.217 5.675c-.841 1.872-1.8 3.794-2.763 5.737-.518 1.164-1.094 2.323-1.683 3.55a13.89 13.89 0 0 0-1.223 3.933l-.206.472c-.55 1.142-1.001 2.328-1.35 3.546-.32 1.096-.707 2.192-1.157 3.419a33.418 33.418 0 0 0-.967 3.608 20.913 20.913 0 0 1-1.026 3.42 21.623 21.623 0 0 0-1.178 4.877 27.256 27.256 0 0 1-.963 4.578 19.363 19.363 0 0 0-.644 4.321c-.063 1.353-.13 2.77-.32 4.127a4.808 4.808 0 0 0 .257 2.386c.116.376.137.774.063 1.16a3.511 3.511 0 0 0-.193 1.804c.099.509.25 1.006.45 1.484a20.93 20.93 0 0 0 1.48 4.127 42.977 42.977 0 0 0 1.994 3.794 8.933 8.933 0 0 0 2.38 2.58 6.36 6.36 0 0 0 3.344 1.417c.973.067 1.94.196 2.897.387.362.055.728.077 1.094.068a6.09 6.09 0 0 0 2.83-.645 10.727 10.727 0 0 1 2.763-.906 1.456 1.456 0 0 0 1.418-1.223.84.84 0 0 1 .9-.514c.643 0 1.286-.388 1.993-1.164a22.513 22.513 0 0 1 2.65-2.892 13.386 13.386 0 0 0 2.704-3.545 12.992 12.992 0 0 1 1.922-2.694l.193-.194c.012.497.056.993.13 1.484.194 1.353.387 2.837.644 4.19.32 2.774 1.993 4.71 4.76 5.611a19.2 19.2 0 0 0 3.025.844c.318.052.64.073.963.063a5.729 5.729 0 0 0 2.056-.388c1.018.42 2.19.038 2.767-.902.1-.078.209-.143.324-.194a25.633 25.633 0 0 0 2.944-1.547 7.708 7.708 0 0 0 2.574-2.45c.198-.155.414-.286.643-.387a11.362 11.362 0 0 0 2.187-1.868l2.318-2.53a2.535 2.535 0 0 0-.068.713c-.126 1.353-.32 2.643-.45 3.794a14.367 14.367 0 0 0-.256 4.064 16.852 16.852 0 0 1-.13 3.609v1.74c0 .583.067 1.16.13 1.873.178 1.41.436 2.81.774 4.19.32 1.223.576 2.53.84 3.933a13.88 13.88 0 0 0 2.188 4.772 6.035 6.035 0 0 0 2.187 1.868c.765.388 1.561.71 2.38.965.417.128.85.194 1.287.194.65.006 1.291-.15 1.867-.45a2.233 2.233 0 0 1 1.682-.258l.774.194.32-.708c.153-.416.452-.76.841-.97a4.248 4.248 0 0 0 1.544-1.48l1.354-2.322a7.515 7.515 0 0 0 1.156-3.032c.2-1.292.523-2.562.963-3.794a7.33 7.33 0 0 0 0-4.709c.49-.543.724-1.27.644-1.998a7.437 7.437 0 0 1-.126-1.29v-.126c-.194-1.164-.324-2.386-.45-3.613-.08-.86-.253-1.708-.518-2.53.387 0 .707-.067 1.094-.067.687-.043 1.377-.02 2.06.067.909.11 1.83.02 2.7-.26.772-.19 1.525-.449 2.25-.772a46.75 46.75 0 0 0 7.848-3.87c.012 1.232.12 2.46.324 3.676a15.697 15.697 0 0 0 1.994 5.35 11.365 11.365 0 0 0 4.436 4.063c.614.312 1.262.55 1.93.709a4.52 4.52 0 0 1 1.481.708l.13.067a7.094 7.094 0 0 0 3.15.772 6.44 6.44 0 0 0 1.094-.127 11.215 11.215 0 0 1 3.28-.067h.13a2.062 2.062 0 0 0 1.35-.515l.127-.13.067-.19a.211.211 0 0 0 .063-.13 6.25 6.25 0 0 0 1.48-.388 15.097 15.097 0 0 0 4.766-2.699c1.287-1.096 2.57-2.107 3.923-3.225.5-.396.973-.827 1.414-1.29a21.66 21.66 0 0 1 1.223-1.29 10.596 10.596 0 0 0 2.574-3.03 6.037 6.037 0 0 1 1.682-1.999l.194-.194.063-.257c.03-.175.073-.347.13-.514a.224.224 0 0 0 .063-.13c.068-.064.068-.127.13-.195l.194-.194.126-.19v-.13c.13-.194.324-.388.518-.708a1.44 1.44 0 0 0 .382-1.096zm-20.776-13.992l1.543-2.711c.324-.578.707-1.096 1.03-1.61.33-.46.695-.891 1.094-1.29l.063-.127c.242-.315.5-.618.774-.906.393-.357.7-.798.9-1.29a3.847 3.847 0 0 1 1.48-1.805c.77-.45 1.607-.965 2.444-1.416a.84.84 0 0 1 .45-.194c.114.132.2.286.256.451.43.922.63 1.935.58 2.951a9.563 9.563 0 0 1-.706 2.951 10.995 10.995 0 0 1-1.867 3.031c-.81.928-1.669 1.81-2.574 2.643a10.934 10.934 0 0 1-2.443 1.687 90.116 90.116 0 0 0-2.944 1.547l-.063.063a1.536 1.536 0 0 1-1.094.194 2.224 2.224 0 0 0-.643-.063 1.78 1.78 0 0 0-.577.063v-.063a5.61 5.61 0 0 1 .577-1.29l1.093-1.872c.277-.26.485-.584.606-.944h.02zm-16.747-36.302c-.08-.492.117-.988.513-1.29a3.796 3.796 0 0 0 1.48-2.643c.064 0 .127-.067.32-.194 1.094-.45 1.287-1.16 1.287-1.547-.028-.605.153-1.2.513-1.686a14.216 14.216 0 0 0 1.61-2.13 17.793 17.793 0 0 1 1.738-2.575 57.444 57.444 0 0 0 2.187-2.774 6.31 6.31 0 0 1 2.637-2.065c.181-.08.377-.123.576-.127v.451a29.784 29.784 0 0 0-.513 4.19 10.737 10.737 0 0 1-.96 3.862c-.516 1.096-1.093 2.255-1.543 3.415a21.575 21.575 0 0 0-1.16 3.613l-.194.387a20.467 20.467 0 0 0-2.523 3.795 30.121 30.121 0 0 1-2.061 3.739c-1.157 1.804-2.313 3.545-3.407 5.286-1.093 1.741-2.25 3.483-3.41 5.291a12.68 12.68 0 0 1-1.413 1.804 5.947 5.947 0 0 0-1.544 2.644.202.202 0 0 0-.13.063l-1.14.738-.13.387c-.078.45-.305.86-.644 1.164a5.178 5.178 0 0 0-1.22 1.48 15.874 15.874 0 0 1-1.867 2.53 63.797 63.797 0 0 0-1.93 2.191l-.193.257c-.312.474-.655.926-1.027 1.354-.387.45-.84.97-1.354 1.547a1.083 1.083 0 0 1-.256.324c.179-.376.33-.764.45-1.163.45-1.223.9-2.45 1.48-3.672l.58-1.998c.144-.495.384-.957.707-1.358.513-.514.774-1.353.774-2.386v-.383a4.215 4.215 0 0 0 1.543-2.13c.19-.644.32-1.29.513-1.871a27.43 27.43 0 0 1 2.187-4.578 26.455 26.455 0 0 0 2.25-4.962 3.4 3.4 0 0 1 .71-1.227c.384-.514.842-1.033 1.22-1.61l.064-.131a82.95 82.95 0 0 0 1.287-2.837 6.01 6.01 0 0 1 1.543-2.062l.387-.324.063-.789zm-26.95 76.469a3.152 3.152 0 0 1-.13-1.687c.124-.419.189-.853.194-1.29v-1.226a4.166 4.166 0 0 1 .323-2.53l.063-.063c.194-.582.32-1.096.514-1.615a4.01 4.01 0 0 0-.064-2.128 8.67 8.67 0 0 0 1.157-3.934 4.645 4.645 0 0 1 .71-2.382l.064.127c.45.97.9 1.998 1.413 2.95.464.909.768 1.89.9 2.901.182 1.52.204 3.054.067 4.579a56.74 56.74 0 0 1-.58 4.578 11.25 11.25 0 0 1-.9 2.837 16.573 16.573 0 0 1-1.682 2.643c-.32.388-.513.451-.577.451-.063 0-.256-.13-.58-.645a7.147 7.147 0 0 1-.387-.708c-.063-.067 0-.194 0-.257v-.262a6.26 6.26 0 0 0-.505-2.34zm-42.455-66.347v-.257a2.468 2.468 0 0 0-.063-.645 10.029 10.029 0 0 0 2.317-4.384 10.87 10.87 0 0 1 1.8-3.794l.126-.19.068-.261c.132-.84.417-1.65.84-2.386l1.35-2.45c.644-1.16 1.22-2.318 1.8-3.482.581-1.096 1.224-2.192 1.868-3.288.45-.708.9-1.547 1.35-2.386.45-.84.9-1.61 1.287-2.256.706-.965 1.35-1.867 2.056-2.706a34.167 34.167 0 0 1 1.994-2.386c.197-.125.415-.212.643-.257.361-.04.711-.151 1.03-.325.02.223-.025.447-.13.645l-.063.063c-.45 1.421-.84 2.905-1.224 4.321a10.128 10.128 0 0 1-1.737 3.676l-.063.064a5.708 5.708 0 0 0-.706 1.804c-.093.39-.321.733-.644.97a1.266 1.266 0 0 0-.58 1.416v.13c-.078.229-.12.468-.126.709a5.593 5.593 0 0 0-1.48 1.998c-.382.736-.726 1.49-1.03 2.26-.32.708-.644 1.416-.964 2.061a5.617 5.617 0 0 1-1.228 1.539l-.257.194-.063.325a8.864 8.864 0 0 1-1.287 2.95c-.706 1.033-1.417 1.999-2.06 3.032l-.063.063a49.458 49.458 0 0 1-3.537 5.931c-.4.64-.85 1.245-1.35 1.809a5.486 5.486 0 0 0-1.161 2.386c-.754.36-1.3 1.05-1.476 1.867a2.577 2.577 0 0 1-.711 1.227l-.126.127c-.194.324-.45.645-.644.97.387-1.164.842-2.324 1.287-3.546a53.469 53.469 0 0 0 1.157-3.482 9.708 9.708 0 0 1 1.287-2.905l.063-.063a2.67 2.67 0 0 0 .256-1.033.236.236 0 0 1 .068-.194l.126.14z" />
        <path fill="#45C2B1" d="M76.714 116.193a14.825 14.825 0 0 0 2.705 1.935 24.826 24.826 0 0 0 6.754 2.774c.8.198 1.62.305 2.443.32a9.622 9.622 0 0 0 2.38-.32c1.332-.398 2.684-.72 4.05-.966l.388-.067.256-.32c.313-.428.77-.728 1.287-.844a5.006 5.006 0 0 0 2.574-1.484l.063-.063c.32-.37.62-.757.9-1.16.269-.332.572-.636.904-.906.32-.257.64-.514.9-.708.9-.645 1.8-1.29 2.313-2.706.112-.353.287-.681.518-.97.32-.383.513-.771.77-1.867a2.754 2.754 0 0 0-.32-2.193 2.379 2.379 0 0 0-1.737-.97c-.518-.126-1.287-.062-2.124.713a2.642 2.642 0 0 0-.963 2.108c0 .388 0 .451-.454.776a5.142 5.142 0 0 0-.964 1.033c-.193.257-.256.32-.256.383a2.63 2.63 0 0 0-.774.97c-.34.398-.755.726-1.22.965-.674.36-1.386.642-2.123.843a7.092 7.092 0 0 1-1.93.325 2.56 2.56 0 0 1-1.157-.194c-1.094-.645-2.187-1.29-3.344-1.872-.84-.45-1.354-1.222-1.547-2.449v-.093l-.063-.126a2.201 2.201 0 0 0-.387-.582.194.194 0 0 0-.063-.126l-.064-.131-.067-.13a7.487 7.487 0 0 1-1.682-2.838c-.324-1.16-.644-2.319-.9-3.609-.067-.13-.067-.324-.13-.45v-.646a.498.498 0 0 0-.064-.324 2.476 2.476 0 0 1-.063-.515 4.123 4.123 0 0 0-.13-.645 4.69 4.69 0 0 1-.13-1.096v-1.74c.067-1.354.193-2.644.323-3.87.127-1.29.194-2.577.194-3.934a1.626 1.626 0 0 1 .256-1.029c.393-.59.596-1.288.58-1.998.01-2.638.467-5.255 1.35-7.74.329-.54.443-1.184.32-1.804l-.063-.194c-.256-.708-.063-.843.257-1.033.513-.32.774-.965.774-1.867v-.194a1.517 1.517 0 0 1 0-.776c.078-.33.185-.654.32-.965a16.56 16.56 0 0 0 1.223-4.322 8.866 8.866 0 0 1 1.35-3.545l.063-.13c.235-.434.347-.924.324-1.417a4.169 4.169 0 0 1 .513-1.935 16.887 16.887 0 0 0 1.35-3.419 37.46 37.46 0 0 1 .967-3.22 46.579 46.579 0 0 0 1.737-4.453c.446-1.43.983-2.829 1.607-4.19a9.017 9.017 0 0 0 .841-2.837 3.25 3.25 0 0 1 .77-1.741 1.98 1.98 0 0 0 .643-1.61c.007-.286.05-.57.13-.844a17.347 17.347 0 0 0 1.683-4.258c.359-1.315.9-2.574 1.606-3.739.203-.281.315-.618.32-.965v-.194a1.268 1.268 0 0 1 .067-.708c.194-.388.383-.776.576-1.097a8.02 8.02 0 0 0 .58-1.29c.194-.446.261-.938.194-1.42a10.426 10.426 0 0 0 1.544-3.609 24.496 24.496 0 0 1 1.03-3.545l.063-.13c.125-.56.32-1.101.58-1.611.38-.715.45-1.555.194-2.323l.513-.514a1.82 1.82 0 0 0 .513-1.29v-.131a7.044 7.044 0 0 1 .067-2.58 9.14 9.14 0 0 0 .064-3.22 4.347 4.347 0 0 0-.968-2.067 5.424 5.424 0 0 0-1.737-1.433 4.505 4.505 0 0 0-2.187-.645 3.903 3.903 0 0 0-2.102.388 40.797 40.797 0 0 0-3.605 2.108 16.833 16.833 0 0 0-3.28 2.774 41.036 41.036 0 0 0-2.83 2.9l-2.7 3.094c-.9 1.096-1.8 2.193-2.574 3.289-.83 1.1-1.603 2.24-2.317 3.419a18.969 18.969 0 0 1-2.057 2.837 10.42 10.42 0 0 0-1.867 3.288 2.644 2.644 0 0 0-1.544 2.71.779.779 0 0 1-.256.258 2.404 2.404 0 0 0-1.224 1.16c-.126.256-.257.513-.383.842a16.877 16.877 0 0 0-1.48 2.837 5.83 5.83 0 0 1-1.48 2.062 1.927 1.927 0 0 0-.917 1.496 6.51 6.51 0 0 1-1.544 3.031 11.518 11.518 0 0 0-2.124 3.483 19.802 19.802 0 0 1-1.026 1.998c-.387.645-.841 1.29-1.287 1.935a16.674 16.674 0 0 0-1.997 3.794 5.72 5.72 0 0 1-2.057 2.774l-.063.063c-.324.325-.387.843-.387 1.686-.002.36-.14.705-.387.966-.307.254-.567.559-.77.902l-.386.843a65.587 65.587 0 0 1-1.737 3.094 49.19 49.19 0 0 0-1.8 3.373c-.421 1.027-.962 2-1.611 2.9a11.625 11.625 0 0 0-1.682 3.373c-.068.261-.194.261-.261.261-.257.064-.45.127-.707.19.131-.695.196-1.4.194-2.108-.016-.62.164-1.229.513-1.74a6.681 6.681 0 0 0 .967-3.55 2.92 2.92 0 0 1 1.094-2.193l.32-.257v-.965a1.559 1.559 0 0 1 .13-.97c.19-.399.406-.786.643-1.16l.063-.126a24.24 24.24 0 0 0 1.35-4.194 11.635 11.635 0 0 1 1.354-3.482c.328-.368.449-.877.32-1.354 0-.194-.063-.387-.063-.577v-.207l-.067-.13c0-.064-.063-.127.067-.258.482-.268.814-.744.9-1.29.044-.325.109-.648.193-.965l.257-1.227c.078-.351.184-.695.32-1.028l.067-.131a29.876 29.876 0 0 1 1.543-4.637 13.7 13.7 0 0 0 1.03-5.354c.52-.344.835-.924.842-1.547-.011-.218.012-.435.067-.645v-.127c.134-1.26.35-2.508.648-3.74a63.02 63.02 0 0 0 .706-3.932c.19-1.064.255-2.147.194-3.225a19.077 19.077 0 0 0-.45-3.162c-.45-1.61-1.683-2.386-3.218-1.998-.967.257-1.867.45-2.7.645-1.068.296-2.069.8-2.943 1.484a20.894 20.894 0 0 1-2.7 1.935 11.107 11.107 0 0 0-2.768 2.449c-.322.41-.713.759-1.156 1.033a5.263 5.263 0 0 0-1.611 1.547 13.427 13.427 0 0 1-2.25 2.9 22.328 22.328 0 0 0-2.767 3.225 11.543 11.543 0 0 0-.963 1.805c-.068.13-.13.387-.9.45h-.324l-.257.258c-.253.235-.399.564-.404.91v.194c.1.263.053.56-.126.776a5.94 5.94 0 0 0-1.417 1.686 51.484 51.484 0 0 0-2.574 3.609c-.126.257-.32.45-.45.708.13-.451.257-.843.387-1.29.26-.804.475-1.621.644-2.45.386-2.255.9-4.447 1.413-6.576.58-2.192 1.097-4.515 1.61-6.833a20.7 20.7 0 0 1 .58-2.644c.27-.964.441-1.952.514-2.95.173-.83.456-1.632.841-2.387a4.597 4.597 0 0 0 .256-3.482 2.825 2.825 0 0 0 .514-1.867 8.413 8.413 0 0 1-.064-1.227c0-2.58-1.417-3.545-2.573-3.933-.644-.257-1.35-.451-2.103-.709-.774-.215-1.952-.134-3.045 1.27a2.63 2.63 0 0 0-.71.387 4.445 4.445 0 0 0-1.864 2.192 2.456 2.456 0 0 1-1.093 1.29l-.45.258V10c.126.577-.068.645-.257.771l-.13.068c-.43.251-.735.672-.841 1.159-.034.203-.1.399-.194.582a68.872 68.872 0 0 1-2.25 6.445 34.104 34.104 0 0 1-3.28 5.995 40.984 40.984 0 0 1-6.11 7.167c-.9.843-.257.388-.581.708-.45.455-.576.645-2.187 1.741l-.257.194a.841.841 0 0 0-.193.13c-.063 0-.13.064-.194.064l-.32.063a6.348 6.348 0 0 0-2.632 1.59 4.699 4.699 0 0 1-2.364 1.306c-.386.064-.773.194-1.16.257-.511.081-.971.358-1.283.772l-.26.261c-.577.578-.644.645-1.157.709-.211.049-.427.07-.644.063a6.07 6.07 0 0 0-1.863.45c-.344.1-.67.253-.967.452-.126.067-.32.13-.77.325l-.193.063-.13.13c-.9.772-2.25 2.32-1.287 3.415l.13.13c.513.583 1.35 1.611 3.474 1.354a8.743 8.743 0 0 0 2.38-.582c.126-.063.194-.063.32-.126.419-.12.851-.184 1.287-.194h.13c1.926-.388 3.785-1.353 5.467-2.255.32-.131.576-.325.9-.452l.126-.067a4.915 4.915 0 0 1 1.388-.645l.126-.063c.178-.104.376-.17.58-.194a5.09 5.09 0 0 0 1.481-.843c.136-.109.288-.195.45-.257.199-.097.393-.204.58-.32.483-.234.953-.491 1.41-.772.643-.515.386-.388.58-.582a7.174 7.174 0 0 1 1.026-.843 33.79 33.79 0 0 0 2.103-1.686c-.126.514-.32 1.032-.45 1.547a15.342 15.342 0 0 0-.925 4.127 2.634 2.634 0 0 0-.968 2.95v.064c-.012.29-.078.576-.193.843a21.276 21.276 0 0 0-1.594 5.253 30.159 30.159 0 0 1-1.224 4.768 23.944 23.944 0 0 0-1.156 4.216 40.998 40.998 0 0 1-.985 3.975 33.659 33.659 0 0 0-.967 4.254 17.84 17.84 0 0 1-1.093 3.794c-.277.45-.41.973-.379 1.5-.008.54-.05 1.08-.126 1.615-.13.514-.257 1.096-.387 1.61a36.845 36.845 0 0 0-1.48 8.853 35.661 35.661 0 0 0-.063 3.672 9.63 9.63 0 0 0 1.03 3.87 4.97 4.97 0 0 0 3.924 2.644 4.787 4.787 0 0 0 4.374-1.417 14.893 14.893 0 0 0 3.406-5.805c.58-1.935 1.287-3.87 1.998-5.674l.063-.257v-.258a5.885 5.885 0 0 1 .387-3.03c.514-1.193.859-2.452 1.026-3.74.067-.645.194-1.353.26-2.066a5.435 5.435 0 0 1 .514-1.74 11.914 11.914 0 0 0 1.156-3.934c.152-1.203.411-2.389.774-3.545a22.91 22.91 0 0 1 1.413-3.415c.58-1.224.971-2.529 1.161-3.87l.45-.451.063-.194c.095-.307.248-.593.45-.843.287-.4.524-.833.707-1.29.5-.903.91-1.853 1.224-2.837a2.667 2.667 0 0 1 1.35-1.687l.193-.13a1.46 1.46 0 0 0 .513-1.033v-.127a1.268 1.268 0 0 1 .067-.712c.19-.337.406-.66.644-.965.262-.338.543-.66.841-.966.369-.412.595-.932.643-1.484 1.48-2.065 2.898-4.064 4.18-6.125a61.833 61.833 0 0 1 9.01-10.898c-.112.36-.263.707-.45 1.033-.257.578-.45 1.223-.644 1.804a4.225 4.225 0 0 0-.194 1.805c-.606.338-1.03.93-1.156 1.614-.057.457-.144.909-.261 1.354l-.45 1.867a5.339 5.339 0 0 1-.707 1.547 11.53 11.53 0 0 0-1.35 3.031 40.009 40.009 0 0 1-.84 2.644l-2.444 7.352-1.224 4.578c-.387 1.484-.9 3.031-1.413 4.515a3.44 3.44 0 0 0-.194 1.804v.194a3.798 3.798 0 0 0-.967 2.062 5.222 5.222 0 0 0 .194 1.935v.063s.067.067-.127.257l-.13.13-.063.195c-.201.54-.31 1.11-.324 1.686-.053.414-.14.822-.256 1.223l-.063.13a13.991 13.991 0 0 0-.13 4.321l.58 4.06A4.501 4.501 0 0 0 43.14 81.7a9.124 9.124 0 0 0 2.944 1.353 5.56 5.56 0 0 0 3.6-.388 7.31 7.31 0 0 1 2.38-.771c.356-.077.68-.262.926-.531l.13-.194a8.424 8.424 0 0 1 1.737-1.931 11.048 11.048 0 0 0 2.317-2.26l.063-.126c.29-.481.507-1.002.644-1.547a.746.746 0 0 1 .32-.455l.193-.127a10.855 10.855 0 0 0 2.187-3.094c.441-.994.935-1.964 1.48-2.905.223-.368.507-.695.841-.965.59-.472.942-1.18.963-1.935-.042-.66.22-1.301.711-1.741a4.574 4.574 0 0 0 1.35-2.644 47.026 47.026 0 0 0 2.894-5.674 46.143 46.143 0 0 1 2.893-5.607c.533-.85.965-1.76 1.287-2.71.28-.784.719-1.501 1.287-2.108a6.83 6.83 0 0 0 1.287-2.951 2.035 2.035 0 0 1 1.156-1.484l.45-.194.068-.514a4.487 4.487 0 0 1 .963-2.26 12.311 12.311 0 0 0 1.606-2.643c.644-1.29 1.287-2.53 1.998-3.672a71.429 71.429 0 0 1 2.25-3.42 27.862 27.862 0 0 0 2.443-3.675 10.672 10.672 0 0 1 2.574-3.094c.21-.227.378-.49.496-.776a.215.215 0 0 0 .068-.127l.126-.13.063-.127.193-.388v.064a11.558 11.558 0 0 1-.84 2.529c-.32.772-.64 1.48-.9 2.255-.257.709-.514 1.421-.842 2.108a21.907 21.907 0 0 0-1.224 3.676 6.92 6.92 0 0 1-1.417 2.838 2.06 2.06 0 0 0-.513 1.48v.193a.537.537 0 0 1 0 .451c-.13.257-.257.645-.387.97a33.172 33.172 0 0 0-1.682 4.447 32.846 32.846 0 0 1-1.61 4.19 18.133 18.133 0 0 0-1.027 3.163c-.26 1.028-.517 2.061-.841 3.094v.063a4.17 4.17 0 0 1-.324.776 4.221 4.221 0 0 0-.643 1.547 16.834 16.834 0 0 1-.842 3.676 34.297 34.297 0 0 0-1.156 3.866c-.387 1.547-.841 3.03-1.287 4.515a49.918 49.918 0 0 0-1.157 4.704 7.501 7.501 0 0 1-.513 1.227 2.797 2.797 0 0 0-.13 1.935 4.09 4.09 0 0 0-.963 2.256c-.067.581-.13 1.226-.194 1.871a17.185 17.185 0 0 1-.773 3.866 4.578 4.578 0 0 0-.58 1.935v.13c.123.774.08 1.565-.127 2.32a9.46 9.46 0 0 0-.45 2.95v1.484a3.38 3.38 0 0 1-.13.966 5.07 5.07 0 0 0-.387 3.372l.067.19a.896.896 0 0 1 .063.325c0 .063-.063.13-.13.257l-.257.582.13.32c.387 1.227.45 1.547.194 2.774a5.915 5.915 0 0 0 .387 3.676l.063.194v.126c.063 3.373.513 4.128 1.863 6.45l.387.709.063.063c.71 1.033 1.354 2.129 1.998 3.288 1.127.632 1.896 1.602 2.796 2.437z" />
        <path fill="#45C2B1" fill-rule="nonzero" d="M138.915 90.338c0-.063-.063-.063-.063-.127-.193-.775-1.03-1.226-1.8-1.357-.77-.13-1.156.067-1.737.582l-.323.324-.32.384c-.387.519-.841 1.096-1.224 1.615a66.578 66.578 0 0 1-2.187 2.9c-.6.612-1.138 1.281-1.606 1.998a5.174 5.174 0 0 1-1.48 1.42l-.842.772-.063.131a7.787 7.787 0 0 1-2.317 2.837c-.556.401-1.073.854-1.544 1.353v-.307a4.52 4.52 0 0 1 .324-2.062c.5-1.455.784-2.976.841-4.515.055-1.383.205-2.76.45-4.123.445-1.868.767-3.763.963-5.674l.602-5.548.256-3.03a6.95 6.95 0 0 0-.643-3.546l-.063-.127a.735.735 0 0 1-.194-.518c-.063-.32-.324-1.29-1.867-1.29h-.257a.277.277 0 0 1-.32-.064 1.855 1.855 0 0 0-2.123.194 25.358 25.358 0 0 1-2.523 1.741 9.776 9.776 0 0 0-2.763 2.644 20.586 20.586 0 0 1-1.737 2.323c-.644.771-1.287 1.686-1.994 2.575a37.244 37.244 0 0 0-2.574 4.001c-.779 1.332-1.66 2.6-2.637 3.794l-.067.063a23.189 23.189 0 0 1-1.413 2.066 5.354 5.354 0 0 1-1.682 1.484c-.576.32-.963.384-1.157.32-.13-.063-.32-.387-.513-1.032l-.067-.194a1.546 1.546 0 0 1-.063-.578V91.7a23.242 23.242 0 0 1-.063-3.027c.051-.976.27-1.935.643-2.837l.063-.131c.082-.207.19-.402.32-.582.256-.432.412-.916.454-1.416.184-.845.51-1.651.963-2.386a22.92 22.92 0 0 0 1.544-2.774 48.125 48.125 0 0 1 2.317-3.934c.837-1.29 1.607-2.643 2.38-4.06.9-1.614.841-3.288-.387-4.965-.386-.451-.706-.903-1.093-1.29-.324-.388-.707-.772-1.224-1.29-1.8-1.741-3.987-1.687-6.11.13l-.064.064a15.927 15.927 0 0 0-1.606 1.935 3.367 3.367 0 0 1-1.224 1.096 1.265 1.265 0 0 0-.9 1.353v.13a.93.93 0 0 1-.067.646l-1.027 1.028a4.04 4.04 0 0 0-.84 1.29c-.131.325-.257.645-.45 1.033a42.179 42.179 0 0 0-3.538 12.382 13.222 13.222 0 0 0-.067 3.545c.13 1.033.324 2.061.45 3.094.132 1.937.973 3.742 2.524 5.417a6.02 6.02 0 0 0 1.993 1.29c.51.18.989.44 1.417.772 1.283.97 2.637 1.42 3.857 1.227a7.341 7.341 0 0 0 3.41-1.354 20.952 20.952 0 0 0 3.15-2.643 36.746 36.746 0 0 0 2.524-2.95l1.156-1.611c.133.397.133.826 0 1.222a12.293 12.293 0 0 0-.643 1.615c-.13.247-.237.505-.32.771a3.625 3.625 0 0 0-.193 1.16v.194c.13.735.063 1.491-.194 2.192a22.034 22.034 0 0 0-.773 2.774c-.19.775-.32 1.547-.513 2.323-.13.843-.257 1.61-.32 2.318a29.15 29.15 0 0 1-.967 4.71 14.302 14.302 0 0 0-.644 5.222l-.126.127c-.387.582-.71 1.163-1.03 1.74a4.212 4.212 0 0 1-1.03 1.164c-.577.376-1.115.806-1.607 1.286l-1.296 1.265a23.36 23.36 0 0 0-2.187 2.192 6.309 6.309 0 0 1-2.06 1.484c-.576.194-.841.843-.963 1.227l-.063.126c-.068.388-.194.388-.324.388a1.922 1.922 0 0 0-1.863 1.29l-.068.194c0 .126-.063.388-.513.582-1.093.063-1.413.771-1.413 1.353 0 .063 0 .257-.067.32a1.681 1.681 0 0 1-.644.388c-.398.192-.784.407-1.156.645-.385.257-.66.647-.774 1.096a2.91 2.91 0 0 0-1.926 1.999l-.13.063c-.842.261-1.287.582-1.544 1.033l-.063.063c-.158.468-.51.845-.967 1.033a3.31 3.31 0 0 0-1.737 1.871 9.213 9.213 0 0 0-2.944 3.373 6.705 6.705 0 0 1-2.574 2.774l-.13.126a1.481 1.481 0 0 0-.45.97v.257c.13.514 0 .645-.063.708a4.669 4.669 0 0 0-1.157 1.421 11.553 11.553 0 0 0-1.61 3.22c-.388 1.034-.707 2.067-1.094 3.1-.257.77-.513 1.48-.77 2.255a6.875 6.875 0 0 0-.256 2.58c-.013.667.008 1.333.063 1.998.055.643.076 1.29.063 1.935a8.114 8.114 0 0 0 1.993 5.286c1.35 1.742 2.898 2.838 4.698 3.158 1.651.34 3.332.513 5.017.519 3.024 0 6.111-.907 9.198-2.774l.13-.064c.34-.29.732-.508 1.157-.645a3.856 3.856 0 0 0 1.48-1.032h.063a2.285 2.285 0 0 0 2.318-1.805v-.194a5.563 5.563 0 0 0 2.376-1.614l1.682-1.931c.58-.645 1.093-1.358 1.682-2.003s1.094-1.48 1.607-2.255a76.402 76.402 0 0 0 3.785-6.897 29.435 29.435 0 0 1 1.543-3.225 11.494 11.494 0 0 0 1.22-3.613 5.03 5.03 0 0 0 1.35-2.95c.12-.919.313-1.825.58-2.711.443-1.01.83-2.042 1.157-3.095a14.44 14.44 0 0 0 .643-3.414v-.068a5.672 5.672 0 0 1 .711-2.706 5.914 5.914 0 0 0 .707-3.613c.071-.14.114-.294.126-.451.193-.843.324-1.686.454-2.45.123-.747.316-1.48.576-2.192a5.463 5.463 0 0 0 .194-2.9c-.064-.325-.064-.776.58-1.484.334-.364.456-.877.32-1.353v-.194c0-2.386.84-4.064 2.523-5.287a69.608 69.608 0 0 0 3.663-3.161 40.346 40.346 0 0 0 3.217-3.415c1.48-1.547 2.894-3.225 4.248-4.835.963-1.164 1.93-2.386 2.944-3.87l.13-.194a5.86 5.86 0 0 0 .32-.582c0-.063.067-.127.13-.194s.194-.19.257-.32c.262-.365.437-.784.513-1.227.231-.291.038-.679-.03-.936zm-43.612 44.168a9.782 9.782 0 0 0 2.898-2.951 7.605 7.605 0 0 0 3.154-2.724 5.731 5.731 0 0 1 2.524-2.107c.47-.234.885-.564 1.22-.97.256-.32.45-.582.71-.902.063-.123.15-.232.256-.32-.13.843-.256 1.686-.386 2.449a35.786 35.786 0 0 1-.9 4.253c-.194.709-.324 1.484-.518 2.192-.126.645-.256 1.354-.45 2.13a49.271 49.271 0 0 1-2.056 7.22c-.644 1.936-1.224 3.934-1.8 5.932a27.072 27.072 0 0 1-2.255 5.544c-.2.313-.33.665-.382 1.033-.05.73-.27 1.437-.644 2.065-.497.717-1.041 1.4-1.627 2.045l-.063.063c-.241.407-.436.84-.58 1.29a4.918 4.918 0 0 0-.45.776c-.064.063-.064.194-.194.257l-4.05 3.288-.063.064a1.03 1.03 0 0 1-.841.387h-.194c-.45.064-.841.131-1.287.194a2.94 2.94 0 0 0-1.682.709 10.49 10.49 0 0 0-2.7-.388 5.365 5.365 0 0 1-2.187-.641 5.052 5.052 0 0 1-1.03-.97 8.352 8.352 0 0 1-.841-1.222 6.992 6.992 0 0 1-.577-6 109 109 0 0 1 1.157-3.608 13.012 13.012 0 0 1 1.543-2.95 11.91 11.91 0 0 0 1.994-3.226 9.785 9.785 0 0 0 2.574-2.837 8.674 8.674 0 0 1 1.993-2.318c.387-.262.774-.582 1.094-.844.443-.38.814-.839 1.093-1.353l.063-.13c.13-.32.517-.844 1.548-1.484a4.033 4.033 0 0 0 1.606-1.484 7.58 7.58 0 0 1 2.33-2.462z" />
    </g>
</svg>
